<mxfile host="app.diagrams.net" modified="2023-11-04T04:11:25.055Z" agent="Mozilla/5.0 (Windows NT 10.0; Win64; x64) AppleWebKit/537.36 (KHTML, like Gecko) Chrome/119.0.0.0 Safari/537.36" etag="irPERd6lhX_hIigkwn2w" version="22.0.8" type="github">
  <diagram name="Page-1" id="wvBw6cIrtbNWeugEI8Je">
    <mxGraphModel dx="1687" dy="929" grid="0" gridSize="10" guides="1" tooltips="1" connect="1" arrows="1" fold="1" page="1" pageScale="1" pageWidth="3000" pageHeight="1200" background="#000000" math="0" shadow="0">
      <root>
        <mxCell id="0" />
        <mxCell id="1" parent="0" />
        <mxCell id="wRuJeH3qIURJGb9_1jIo-2" value="" style="rounded=1;whiteSpace=wrap;html=1;fillColor=none;" vertex="1" parent="1">
          <mxGeometry x="74" y="95" width="120" height="60" as="geometry" />
        </mxCell>
        <mxCell id="wRuJeH3qIURJGb9_1jIo-4" value="" style="rounded=1;whiteSpace=wrap;html=1;fillColor=none;" vertex="1" parent="1">
          <mxGeometry x="148" y="109" width="120" height="60" as="geometry" />
        </mxCell>
        <mxCell id="wRuJeH3qIURJGb9_1jIo-8" value="" style="rounded=1;whiteSpace=wrap;html=1;fillColor=none;strokeColor=#FFFFFF;" vertex="1" parent="1">
          <mxGeometry x="111" y="362" width="120" height="60" as="geometry" />
        </mxCell>
        <mxCell id="wRuJeH3qIURJGb9_1jIo-9" value="" style="rounded=1;whiteSpace=wrap;html=1;fillColor=none;strokeColor=#FFFFFF;" vertex="1" parent="1">
          <mxGeometry x="129" y="513" width="120" height="60" as="geometry" />
        </mxCell>
        <mxCell id="wRuJeH3qIURJGb9_1jIo-10" value="dfb" style="rounded=1;whiteSpace=wrap;html=1;fillColor=none;strokeColor=#FFFFFF;align=center;" vertex="1" parent="1">
          <mxGeometry x="111" y="362" width="120" height="60" as="geometry" />
        </mxCell>
        <mxCell id="wRuJeH3qIURJGb9_1jIo-11" value="" style="rounded=1;whiteSpace=wrap;html=1;fillColor=none;strokeColor=#FFFFFF;" vertex="1" parent="1">
          <mxGeometry x="148" y="616" width="120" height="60" as="geometry" />
        </mxCell>
        <mxCell id="wRuJeH3qIURJGb9_1jIo-12" value="" style="rounded=1;whiteSpace=wrap;html=1;fillColor=none;strokeColor=#FFFFFF;" vertex="1" parent="1">
          <mxGeometry x="1058" y="464" width="120" height="60" as="geometry" />
        </mxCell>
        <mxCell id="wRuJeH3qIURJGb9_1jIo-13" value="" style="rounded=1;whiteSpace=wrap;html=1;fillColor=none;strokeColor=#FFFFFF;" vertex="1" parent="1">
          <mxGeometry x="769" y="480" width="120" height="60" as="geometry" />
        </mxCell>
        <mxCell id="wRuJeH3qIURJGb9_1jIo-14" value="" style="rounded=1;whiteSpace=wrap;html=1;fillColor=none;strokeColor=#FFFFFF;" vertex="1" parent="1">
          <mxGeometry x="752" y="388" width="120" height="60" as="geometry" />
        </mxCell>
        <mxCell id="wRuJeH3qIURJGb9_1jIo-15" value="" style="rounded=1;whiteSpace=wrap;html=1;fillColor=none;strokeColor=#FFFFFF;" vertex="1" parent="1">
          <mxGeometry x="373" y="253" width="120" height="60" as="geometry" />
        </mxCell>
        <mxCell id="wRuJeH3qIURJGb9_1jIo-16" value="" style="rounded=1;whiteSpace=wrap;html=1;fillColor=none;strokeColor=#FFFFFF;" vertex="1" parent="1">
          <mxGeometry x="958" y="229" width="120" height="60" as="geometry" />
        </mxCell>
        <mxCell id="wRuJeH3qIURJGb9_1jIo-17" value="" style="rounded=1;whiteSpace=wrap;html=1;fillColor=none;strokeColor=#FFFFFF;" vertex="1" parent="1">
          <mxGeometry x="1175" y="274" width="120" height="60" as="geometry" />
        </mxCell>
        <mxCell id="wRuJeH3qIURJGb9_1jIo-18" value="" style="rounded=1;whiteSpace=wrap;html=1;fillColor=none;strokeColor=#FFFFFF;" vertex="1" parent="1">
          <mxGeometry x="527" y="313" width="120" height="60" as="geometry" />
        </mxCell>
        <mxCell id="wRuJeH3qIURJGb9_1jIo-19" value="" style="rounded=1;whiteSpace=wrap;html=1;fillColor=none;strokeColor=#FFFFFF;" vertex="1" parent="1">
          <mxGeometry x="899" y="316" width="120" height="60" as="geometry" />
        </mxCell>
        <mxCell id="wRuJeH3qIURJGb9_1jIo-20" value="" style="rounded=1;whiteSpace=wrap;html=1;fillColor=none;strokeColor=#FFFFFF;" vertex="1" parent="1">
          <mxGeometry x="1263" y="388" width="120" height="60" as="geometry" />
        </mxCell>
      </root>
    </mxGraphModel>
  </diagram>
</mxfile>
